<svg xmlns="http://www.w3.org/2000/svg" xmlns:xlink="http://www.w3.org/1999/xlink" viewBox="0 0 556.25 37.77"><defs><style>.cls-1{isolation:isolate;}.cls-2{mix-blend-mode:multiply;}.cls-3{fill:url(#linear-gradient);}.cls-4{fill:url(#linear-gradient-2);}.cls-5{fill:url(#linear-gradient-3);}.cls-6{fill:url(#linear-gradient-4);}.cls-7{fill:url(#linear-gradient-12);}</style><linearGradient id="linear-gradient" x1="-0.24" y1="18.88" x2="554.62" y2="18.88" gradientUnits="userSpaceOnUse"><stop offset="0" stop-color="#fff5ca"/><stop offset="0.67" stop-color="#feecd3"/><stop offset="0.99" stop-color="#fee5da"/></linearGradient><linearGradient id="linear-gradient-2" x1="-0.24" y1="18.1" x2="554.62" y2="18.1" xlink:href="#linear-gradient"/><linearGradient id="linear-gradient-3" x1="-0.24" y1="23.6" x2="554.62" y2="23.6" xlink:href="#linear-gradient"/><linearGradient id="linear-gradient-4" x1="-0.24" y1="29.11" x2="554.62" y2="29.11" xlink:href="#linear-gradient"/><linearGradient id="linear-gradient-12" x1="-0.24" y1="51.73" x2="554.62" y2="51.73" gradientTransform="matrix(1, 0, 0, -1, 0, 70.61)" xlink:href="#linear-gradient"/></defs><g class="cls-1"><g id="Layer_2" data-name="Layer 2"><g id="Layer_1-2" data-name="Layer 1"><g class="cls-2"><path class="cls-3" d="M31,9,22.5.47A1.44,1.44,0,0,0,21.4,0H3.15A3.16,3.16,0,0,0,0,3.15V34.62a3.16,3.16,0,0,0,3.15,3.15H28.33a3.15,3.15,0,0,0,3.14-3.15V10.07A1.4,1.4,0,0,0,31,9ZM28.33,33.83a.75.75,0,0,1-.79.79H3.93a.74.74,0,0,1-.78-.79V3.93a.73.73,0,0,1,.78-.78H20c.31,0,.47.15.47.31V7.87A3.15,3.15,0,0,0,23.6,11H28c.16,0,.32.15.32.47Z"/><rect class="cls-4" x="7.08" y="16.52" width="17.31" height="3.15"/><rect class="cls-5" x="7.08" y="22.03" width="17.31" height="3.15"/><rect class="cls-6" x="7.08" y="27.54" width="17.31" height="3.15"/><path class="cls-3" d="M125.94,9l-8.5-8.5a1.42,1.42,0,0,0-1.1-.47H98.09a3.16,3.16,0,0,0-3.15,3.15V34.62a3.16,3.16,0,0,0,3.15,3.15h25.18a3.15,3.15,0,0,0,3.14-3.15V10.07A1.4,1.4,0,0,0,125.94,9Zm-2.67,24.86a.75.75,0,0,1-.79.79H98.88a.75.75,0,0,1-.79-.79V3.93a.74.74,0,0,1,.79-.78h16.05c.31,0,.47.15.47.31V7.87A3.16,3.16,0,0,0,118.55,11H123c.16,0,.32.15.32.47Z"/><rect class="cls-4" x="102.02" y="16.52" width="4.72" height="3.15"/><rect class="cls-5" x="102.02" y="22.03" width="4.72" height="3.15"/><rect class="cls-6" x="102.02" y="27.54" width="4.72" height="3.15"/><rect class="cls-4" x="109.1" y="16.52" width="10.23" height="3.15"/><rect class="cls-5" x="109.1" y="22.03" width="10.23" height="3.15"/><rect class="cls-6" x="109.1" y="27.54" width="10.23" height="3.15"/><path class="cls-7" d="M173.1,4.72h-4.41a.33.33,0,0,1-.31-.31V1.57a1.58,1.58,0,0,0-3.15,0V9.13a1.26,1.26,0,1,1-2.52,0V5.51c.16-.47-.15-.79-.63-.79h-9.91a.34.34,0,0,1-.32-.31V1.57a1.57,1.57,0,1,0-3.14,0V9.13a1.26,1.26,0,1,1-2.52,0V5.51c.16-.47-.16-.79-.63-.79H143.2a3.16,3.16,0,0,0-3.15,3.15V34.62a3.16,3.16,0,0,0,3.15,3.15h29.9a3.16,3.16,0,0,0,3.15-3.15V7.87A3.16,3.16,0,0,0,173.1,4.72Zm-.79,29.9H144a.75.75,0,0,1-.79-.79V15a.75.75,0,0,1,.79-.79h28.32a.75.75,0,0,1,.79.79V33.83A.75.75,0,0,1,172.31,34.62Z"/><path class="cls-7" d="M78.16,4.72H73.75a.33.33,0,0,1-.31-.31V1.57a1.58,1.58,0,0,0-3.15,0V9.13a1.26,1.26,0,1,1-2.52,0V5.51c.16-.47-.16-.79-.63-.79H57.23a.34.34,0,0,1-.32-.31V1.57a1.57,1.57,0,0,0-3.14,0V9.13a1.26,1.26,0,1,1-2.52,0V5.51c.15-.47-.16-.79-.63-.79H48.26a3.16,3.16,0,0,0-3.15,3.15V34.62a3.16,3.16,0,0,0,3.15,3.15h29.9a3.15,3.15,0,0,0,3.14-3.15V7.87A3.15,3.15,0,0,0,78.16,4.72Zm-.79,29.9H49a.74.74,0,0,1-.78-.79V15a.74.74,0,0,1,.78-.79H77.37a.75.75,0,0,1,.79.79V33.83A.75.75,0,0,1,77.37,34.62Z"/><path class="cls-3" d="M221,9,212.5.47A1.44,1.44,0,0,0,211.4,0H193.15A3.16,3.16,0,0,0,190,3.15V34.62a3.16,3.16,0,0,0,3.15,3.15h25.18a3.15,3.15,0,0,0,3.14-3.15V10.07A1.4,1.4,0,0,0,221,9Zm-2.67,24.86a.75.75,0,0,1-.79.79H193.93a.74.74,0,0,1-.78-.79V3.93a.73.73,0,0,1,.78-.78H210c.31,0,.47.15.47.31V7.87A3.15,3.15,0,0,0,213.6,11H218c.16,0,.32.15.32.47Z"/><rect class="cls-4" x="197.08" y="16.52" width="17.31" height="3.15"/><rect class="cls-5" x="197.08" y="22.03" width="17.31" height="3.15"/><rect class="cls-6" x="197.08" y="27.54" width="17.31" height="3.15"/><path class="cls-3" d="M315.94,9l-8.5-8.5a1.42,1.42,0,0,0-1.1-.47H288.09a3.16,3.16,0,0,0-3.15,3.15V34.62a3.16,3.16,0,0,0,3.15,3.15h25.18a3.15,3.15,0,0,0,3.14-3.15V10.07A1.4,1.4,0,0,0,315.94,9Zm-2.67,24.86a.75.75,0,0,1-.79.79h-23.6a.75.75,0,0,1-.79-.79V3.93a.74.74,0,0,1,.79-.78h16.05c.31,0,.47.15.47.31V7.87A3.16,3.16,0,0,0,308.55,11H313c.16,0,.32.15.32.47Z"/><rect class="cls-4" x="292.02" y="16.52" width="4.72" height="3.15"/><rect class="cls-5" x="292.02" y="22.03" width="4.72" height="3.15"/><rect class="cls-6" x="292.02" y="27.54" width="4.72" height="3.15"/><rect class="cls-4" x="299.1" y="16.52" width="10.23" height="3.15"/><rect class="cls-5" x="299.1" y="22.03" width="10.23" height="3.15"/><rect class="cls-6" x="299.1" y="27.54" width="10.23" height="3.15"/><path class="cls-7" d="M363.1,4.72h-4.41a.33.33,0,0,1-.31-.31V1.57a1.58,1.58,0,0,0-3.15,0V9.13a1.26,1.26,0,0,1-2.52,0V5.51c.16-.47-.15-.79-.63-.79h-9.91a.34.34,0,0,1-.32-.31V1.57a1.57,1.57,0,1,0-3.14,0V9.13a1.26,1.26,0,1,1-2.52,0V5.51c.16-.47-.16-.79-.63-.79H333.2a3.16,3.16,0,0,0-3.15,3.15V34.62a3.16,3.16,0,0,0,3.15,3.15h29.9a3.16,3.16,0,0,0,3.15-3.15V7.87A3.16,3.16,0,0,0,363.1,4.72Zm-.79,29.9H334a.75.75,0,0,1-.79-.79V15a.75.75,0,0,1,.79-.79h28.32a.75.75,0,0,1,.79.79V33.83A.75.75,0,0,1,362.31,34.62Z"/><path class="cls-7" d="M268.16,4.72h-4.41a.33.33,0,0,1-.31-.31V1.57a1.58,1.58,0,0,0-3.15,0V9.13a1.26,1.26,0,0,1-2.52,0V5.51c.16-.47-.16-.79-.63-.79h-9.91a.34.34,0,0,1-.32-.31V1.57a1.57,1.57,0,1,0-3.14,0V9.13a1.26,1.26,0,1,1-2.52,0V5.51c.15-.47-.16-.79-.63-.79h-2.36a3.16,3.16,0,0,0-3.15,3.15V34.62a3.16,3.16,0,0,0,3.15,3.15h29.9a3.15,3.15,0,0,0,3.14-3.15V7.87A3.15,3.15,0,0,0,268.16,4.72Zm-.79,29.9H239a.74.74,0,0,1-.78-.79V15a.74.74,0,0,1,.78-.79h28.33a.75.75,0,0,1,.79.79V33.83A.75.75,0,0,1,267.37,34.62Z"/><path class="cls-3" d="M411,9,402.5.47A1.44,1.44,0,0,0,401.4,0H383.15A3.16,3.16,0,0,0,380,3.15V34.62a3.16,3.16,0,0,0,3.15,3.15h25.18a3.15,3.15,0,0,0,3.14-3.15V10.07A1.4,1.4,0,0,0,411,9Zm-2.67,24.86a.75.75,0,0,1-.79.79H383.93a.74.74,0,0,1-.78-.79V3.93a.73.73,0,0,1,.78-.78H400c.31,0,.47.15.47.31V7.87A3.15,3.15,0,0,0,403.6,11H408c.16,0,.32.15.32.47Z"/><rect class="cls-4" x="387.08" y="16.52" width="17.31" height="3.15"/><rect class="cls-5" x="387.08" y="22.03" width="17.31" height="3.15"/><rect class="cls-6" x="387.08" y="27.54" width="17.31" height="3.15"/><path class="cls-3" d="M505.94,9l-8.5-8.5a1.42,1.42,0,0,0-1.1-.47H478.09a3.16,3.16,0,0,0-3.15,3.15V34.62a3.16,3.16,0,0,0,3.15,3.15h25.18a3.15,3.15,0,0,0,3.14-3.15V10.07A1.4,1.4,0,0,0,505.94,9Zm-2.67,24.86a.75.75,0,0,1-.79.79h-23.6a.75.75,0,0,1-.79-.79V3.93a.74.74,0,0,1,.79-.78h16.05c.31,0,.47.15.47.31V7.87A3.16,3.16,0,0,0,498.55,11H503c.16,0,.32.15.32.47Z"/><rect class="cls-4" x="482.02" y="16.52" width="4.72" height="3.15"/><rect class="cls-5" x="482.02" y="22.03" width="4.72" height="3.15"/><rect class="cls-6" x="482.02" y="27.54" width="4.72" height="3.15"/><rect class="cls-4" x="489.1" y="16.52" width="10.23" height="3.15"/><rect class="cls-5" x="489.1" y="22.03" width="10.23" height="3.15"/><rect class="cls-6" x="489.1" y="27.54" width="10.23" height="3.15"/><path class="cls-7" d="M553.1,4.72h-4.41a.33.33,0,0,1-.31-.31V1.57a1.58,1.58,0,0,0-3.15,0V9.13a1.26,1.26,0,1,1-2.52,0V5.51c.16-.47-.15-.79-.63-.79h-9.91a.34.34,0,0,1-.32-.31V1.57a1.57,1.57,0,0,0-3.14,0V9.13a1.26,1.26,0,0,1-2.52,0V5.51c.16-.47-.16-.79-.63-.79H523.2a3.16,3.16,0,0,0-3.15,3.15V34.62a3.16,3.16,0,0,0,3.15,3.15h29.9a3.16,3.16,0,0,0,3.15-3.15V7.87A3.16,3.16,0,0,0,553.1,4.72Zm-.79,29.9H524a.75.75,0,0,1-.79-.79V15a.75.75,0,0,1,.79-.79h28.32a.75.75,0,0,1,.79.79V33.83A.75.75,0,0,1,552.31,34.62Z"/><path class="cls-7" d="M458.16,4.72h-4.41a.33.33,0,0,1-.31-.31V1.57a1.58,1.58,0,0,0-3.15,0V9.13a1.26,1.26,0,1,1-2.52,0V5.51c.16-.47-.16-.79-.63-.79h-9.91a.34.34,0,0,1-.32-.31V1.57a1.57,1.57,0,1,0-3.14,0V9.13a1.26,1.26,0,0,1-2.52,0V5.51c.15-.47-.16-.79-.63-.79h-2.36a3.16,3.16,0,0,0-3.15,3.15V34.62a3.16,3.16,0,0,0,3.15,3.15h29.9a3.15,3.15,0,0,0,3.14-3.15V7.87A3.15,3.15,0,0,0,458.16,4.72Zm-.79,29.9H429a.74.74,0,0,1-.78-.79V15a.74.74,0,0,1,.78-.79h28.33a.75.75,0,0,1,.79.79V33.83A.75.75,0,0,1,457.37,34.62Z"/></g></g></g></g></svg>